<svg width="17" height="16" viewBox="0 0 17 16" fill="none" xmlns="http://www.w3.org/2000/svg">
<path fill-rule="evenodd" clip-rule="evenodd" d="M8.49989 3C5.32109 3 2.52721 4.64801 0.926015 7.13625C0.587213 7.66274 0.587224 8.3375 0.926041 8.86398C2.52726 11.3521 5.32107 13 8.49977 13C11.6786 13 14.4725 11.352 16.0737 8.86375C16.4125 8.33726 16.4124 7.6625 16.0736 7.13602C14.4724 4.64791 11.6786 3 8.49989 3ZM8.5 11C10.1569 11 11.5 9.65685 11.5 8C11.5 6.34315 10.1569 5 8.5 5C6.84315 5 5.5 6.34315 5.5 8C5.5 9.65685 6.84315 11 8.5 11Z" fill="#123932"/>
</svg>
