<svg width="16" height="16" viewBox="0 0 16 16" fill="none" xmlns="http://www.w3.org/2000/svg">
<path fill-rule="evenodd" clip-rule="evenodd" d="M3.00002 5.60017L0.600174 8.00001L1.99983 9.5L8.00017 3.50001L13.9998 9.5L15.4002 8.00001L8.70728 1.30711C8.31676 0.91659 7.68359 0.91659 7.29307 1.30711L5.00002 3.60017V2H3.00002V5.60017ZM3.00008 11.3282V14C3.00008 14.5523 3.44779 15 4.00008 15H6.00008V12C6.00008 10.8954 6.89551 10 8.00008 10C9.10465 10 10.0001 10.8954 10.0001 12V15H12.0001C12.5524 15 13.0001 14.5523 13.0001 14V11.3287L12.5856 10.9142L8.00009 6.32843L3.41401 10.9143L3.00008 11.3282Z" fill="#081917"/>
</svg>
